<?xml version="1.0" encoding="UTF-8" standalone="no"?>
<!-- Created with Inkscape (http://www.inkscape.org/) -->

<svg
   xmlns:dc="http://purl.org/dc/elements/1.1/"
   xmlns:cc="http://creativecommons.org/ns#"
   xmlns:rdf="http://www.w3.org/1999/02/22-rdf-syntax-ns#"
   xmlns:svg="http://www.w3.org/2000/svg"
   xmlns="http://www.w3.org/2000/svg"
   xmlns:sodipodi="http://sodipodi.sourceforge.net/DTD/sodipodi-0.dtd"
   xmlns:inkscape="http://www.inkscape.org/namespaces/inkscape"
   version="1.1"
   id="svg2"
   xml:space="preserve"
   width="831.49622"
   height="206.44547"
   viewBox="0 0 831.4962 206.44547"
   sodipodi:docname="avvp_2019_logo_wortmarke_pos.svg"
   inkscape:version="0.92.5 (2060ec1f9f, 2020-04-08)"><metadata
     id="metadata8"><rdf:RDF><cc:Work
         rdf:about=""><dc:format>image/svg+xml</dc:format><dc:type
           rdf:resource="http://purl.org/dc/dcmitype/StillImage" /><dc:title></dc:title></cc:Work></rdf:RDF></metadata><defs
     id="defs6"><clipPath
       clipPathUnits="userSpaceOnUse"
       id="clipPath18"><path
         d="M 0,595.28 H 841.89 V 0 H 0 Z"
         id="path16"
         inkscape:connector-curvature="0" /></clipPath></defs><sodipodi:namedview
     pagecolor="#ffffff"
     bordercolor="#666666"
     borderopacity="1"
     objecttolerance="10"
     gridtolerance="10"
     guidetolerance="10"
     inkscape:pageopacity="0"
     inkscape:pageshadow="2"
     inkscape:window-width="1908"
     inkscape:window-height="1167"
     id="namedview4"
     showgrid="false"
     inkscape:zoom="0.29733907"
     inkscape:cx="-462.03748"
     inkscape:cy="103.21841"
     inkscape:window-x="1920"
     inkscape:window-y="0"
     inkscape:window-maximized="0"
     inkscape:current-layer="g10" /><g
     id="g10"
     inkscape:groupmode="layer"
     inkscape:label="avvp_2019_logo_wortmarke_pos"
     transform="matrix(1.3333333,0,0,-1.3333333,-145.51173,500.08039)"><g
       id="g12"><g
         id="g14"
         clip-path="url(#clipPath18)"><g
           id="g20"
           transform="translate(196.1299,245.5146)"><path
             d="m 0,0 c -0.603,-2.51 -1.307,-5.234 -1.709,-8.234 h -2.508 c -0.503,3 -1.105,5.861 -1.706,8.371 l -12.552,50.629 h -15.761 l 18.875,-65.918 c 0.602,-2.51 2.711,-5.082 5.419,-5.082 H 4.016 c 2.708,0 4.817,2.435 5.421,4.949 l 1.742,6.403 -7.224,24.832 z"
             style="fill:#f57c14;fill-opacity:1;fill-rule:nonzero;stroke:none"
             id="path22"
             inkscape:connector-curvature="0" /></g><g
           id="g24"
           transform="translate(240.127,229.7471)"><path
             d="m 0,0 c -0.613,-2.555 -2.759,-4.29 -5.517,-4.29 h -14.2 c -2.757,0 -4.903,1.735 -5.516,4.29 L -44.438,66.2 H -28.4 l 12.77,-50.877 c 0.614,-2.553 1.227,-5.312 1.736,-7.866 h 2.552 c 0.411,2.554 1.126,5.313 1.74,7.866 L 3.067,66.2 h 16.037 z"
             style="fill:#011a30;fill-opacity:1;fill-rule:nonzero;stroke:none"
             id="path26"
             inkscape:connector-curvature="0" /></g><g
           id="g28"
           transform="translate(172.6738,225.457)"><path
             d="m 0,0 h -16.035 l -12.668,50.873 c -0.613,2.552 -1.33,5.312 -1.739,7.866 h -2.553 c -0.511,-2.554 -1.123,-5.314 -1.735,-7.866 L -47.502,0 H -63.54 l 19.204,66.198 c 0.614,2.555 2.76,4.292 5.516,4.292 h 14.203 c 2.757,0 4.902,-1.737 5.514,-4.292 z"
             style="fill:#011a30;fill-opacity:1;fill-rule:nonzero;stroke:none"
             id="path30"
             inkscape:connector-curvature="0" /></g><g
           id="g32"
           transform="translate(285.2598,262.2627)"><path
             d="m 0,0 c 7.896,0.102 10.945,2.319 13.409,10.99 2.467,8.674 0.677,10.89 -7.19,10.89 L -4.599,21.783 -10.792,0 Z m -16.803,32.774 c 8.601,0.805 14.174,0.908 26.679,0.908 19.26,0 24.007,-4.944 18.962,-22.692 -5.103,-17.951 -12.628,-22.789 -29.872,-22.789 -4.539,0 -8.989,0.301 -12.883,0.806 l -7.336,-25.813 h -15.329 z"
             style="fill:#011a30;fill-opacity:1;fill-rule:nonzero;stroke:none"
             id="path34"
             inkscape:connector-curvature="0" /></g><g
           id="g36"
           transform="translate(188.9932,335.124)"><path
             d="M 0,0 3.642,-1.82 7.284,0 5.463,-3.641 7.284,-7.285 3.642,-5.462 0,-7.285 1.821,-3.642 Z"
             style="fill:#0994dc;fill-opacity:1;fill-rule:nonzero;stroke:none"
             id="path38"
             inkscape:connector-curvature="0" /></g><g
           id="g40"
           transform="translate(182.3496,331.5044)"><path
             d="M 0,0 8.377,1.729 10.246,10.28 12.114,1.729 20.562,0 12.114,-1.995 10.246,-10.279 8.377,-1.995 Z"
             style="fill:#0994dc;fill-opacity:1;fill-rule:nonzero;stroke:none"
             id="path42"
             inkscape:connector-curvature="0" /></g><g
           id="g44"
           transform="translate(141.0371,319.3418)"><path
             d="M 0,0 2.575,-1.287 5.148,0 3.861,-2.573 5.148,-5.148 2.575,-3.861 0,-5.15 1.288,-2.573 Z"
             style="fill:#0994dc;fill-opacity:1;fill-rule:nonzero;stroke:none"
             id="path46"
             inkscape:connector-curvature="0" /></g><g
           id="g48"
           transform="translate(136.3437,316.7827)"><path
             d="M 0,0 5.918,1.223 7.241,7.266 8.559,1.223 14.53,0 8.559,-1.411 7.241,-7.266 5.918,-1.411 Z"
             style="fill:#0994dc;fill-opacity:1;fill-rule:nonzero;stroke:none"
             id="path50"
             inkscape:connector-curvature="0" /></g><g
           id="g52"
           transform="translate(228.6631,352.6704)"><path
             d="M 0,0 3.145,-1.573 6.287,0 4.716,-3.143 6.287,-6.288 3.144,-4.715 0,-6.288 1.572,-3.143 Z"
             style="fill:#0994dc;fill-opacity:1;fill-rule:nonzero;stroke:none"
             id="path54"
             inkscape:connector-curvature="0" /></g><g
           id="g56"
           transform="translate(222.9307,349.5464)"><path
             d="M 0,0 7.229,1.492 8.844,8.872 10.452,1.492 17.745,0 10.452,-1.723 8.844,-8.872 7.229,-1.723 Z"
             style="fill:#0994dc;fill-opacity:1;fill-rule:nonzero;stroke:none"
             id="path58"
             inkscape:connector-curvature="0" /></g><g
           id="g60"
           transform="translate(246.8105,370.3423)"><path
             d="M 0,0 2.582,-1.29 5.163,0 3.871,-2.58 5.163,-5.159 2.58,-3.869 0,-5.159 1.292,-2.58 Z"
             style="fill:#0994dc;fill-opacity:1;fill-rule:nonzero;stroke:none"
             id="path62"
             inkscape:connector-curvature="0" /></g><g
           id="g64"
           transform="translate(242.1084,367.7793)"><path
             d="M 0,0 5.933,1.224 7.256,7.281 8.577,1.224 14.562,0 8.577,-1.415 7.256,-7.28 5.933,-1.415 Z"
             style="fill:#0994dc;fill-opacity:1;fill-rule:nonzero;stroke:none"
             id="path66"
             inkscape:connector-curvature="0" /></g><g
           id="g68"
           transform="translate(267.8271,340.7573)"><path
             d="M 0,0 1.998,-1 3.996,0 2.998,-1.998 3.996,-3.995 1.998,-2.996 0,-3.996 1,-1.999 Z"
             style="fill:#0994dc;fill-opacity:1;fill-rule:nonzero;stroke:none"
             id="path70"
             inkscape:connector-curvature="0" /></g><g
           id="g72"
           transform="translate(264.1846,338.7715)"><path
             d="M 0,0 4.597,0.949 5.618,5.638 6.643,0.949 11.277,0 6.643,-1.095 5.618,-5.638 4.597,-1.095 Z"
             style="fill:#0994dc;fill-opacity:1;fill-rule:nonzero;stroke:none"
             id="path74"
             inkscape:connector-curvature="0" /></g><g
           id="g76"
           transform="translate(261.3018,323.4692)"><path
             d="M 0,0 2.564,-1.283 5.129,0 3.847,-2.564 5.129,-5.128 2.564,-3.845 0,-5.128 1.281,-2.564 Z"
             style="fill:#0994dc;fill-opacity:1;fill-rule:nonzero;stroke:none"
             id="path78"
             inkscape:connector-curvature="0" /></g><g
           id="g80"
           transform="translate(256.626,320.9204)"><path
             d="M 0,0 5.896,1.218 7.213,7.236 8.527,1.218 14.474,0 8.527,-1.406 7.213,-7.235 5.896,-1.406 Z"
             style="fill:#0994dc;fill-opacity:1;fill-rule:nonzero;stroke:none"
             id="path82"
             inkscape:connector-curvature="0" /></g><g
           id="g84"
           transform="translate(218.6357,308.2432)"><path
             d="M 0,0 2.563,-1.283 5.128,0 3.845,-2.565 5.128,-5.128 2.563,-3.847 0,-5.129 1.282,-2.565 Z"
             style="fill:#0994dc;fill-opacity:1;fill-rule:nonzero;stroke:none"
             id="path86"
             inkscape:connector-curvature="0" /></g><g
           id="g88"
           transform="translate(213.96,305.6943)"><path
             d="M 0,0 5.896,1.218 7.213,7.235 8.525,1.218 14.472,0 8.525,-1.406 7.213,-7.236 5.896,-1.406 Z"
             style="fill:#0994dc;fill-opacity:1;fill-rule:nonzero;stroke:none"
             id="path90"
             inkscape:connector-curvature="0" /></g><g
           id="g92"
           transform="translate(360.54,292.1807)"><path
             d="m 0,0 -2.909,-13.718 h 5.851 z m 4.883,-22.766 -1.364,6.357 h -7.003 l -1.399,-6.357 H -8.08 l 6.068,25.135 h 4.13 l 5.961,-25.135 z"
             style="fill:#011a30;fill-opacity:1;fill-rule:nonzero;stroke:none"
             id="path94"
             inkscape:connector-curvature="0" /></g><g
           id="g96"
           transform="translate(376.4814,269.415)"><path
             d="M 0,0 H -4.632 V 2.692 H 0.36 c 1.255,0 1.975,0.538 1.975,1.617 v 1.903 c 0,1.078 -0.54,1.615 -1.546,1.615 H 0.178 c -3.302,0 -4.989,1.328 -4.989,4.561 v 1.041 c 0,3.34 1.973,4.526 5.384,4.526 h 4.094 v -2.694 h -4.45 c -1.151,0 -1.976,-0.539 -1.976,-1.617 v -1.291 c 0,-1.149 0.825,-1.616 1.723,-1.616 h 0.502 c 3.195,0 4.921,-1.582 4.921,-4.633 V 4.488 C 5.387,1.399 3.411,0 0,0"
             style="fill:#011a30;fill-opacity:1;fill-rule:nonzero;stroke:none"
             id="path98"
             inkscape:connector-curvature="0" /></g><g
           id="g100"
           transform="translate(390.6631,269.415)"><path
             d="m 0,0 c -2.515,0 -3.771,1.796 -3.771,4.309 v 10.952 h -2.334 v 2.694 h 2.334 v 4.309 H -0.72 V 17.955 H 3.446 V 15.261 H -0.72 V 4.129 c 0,-1.078 0.539,-1.437 1.616,-1.437 h 2.55 L 3.446,0 Z"
             style="fill:#011a30;fill-opacity:1;fill-rule:nonzero;stroke:none"
             id="path102"
             inkscape:connector-curvature="0" /></g><g
           id="g104"
           transform="translate(397.877,269.415)"><path
             d="m 0,0 v 17.955 h 2.875 v -0.971 c 0.787,0.647 1.722,0.971 2.872,0.971 h 2.62 V 15.081 H 5.388 c -1.795,0 -2.334,-1.616 -2.334,-2.334 V 0 Z"
             style="fill:#011a30;fill-opacity:1;fill-rule:nonzero;stroke:none"
             id="path106"
             inkscape:connector-curvature="0" /></g><g
           id="g108"
           transform="translate(418.5605,282.3428)"><path
             d="M 0,0 C 0,1.435 -0.899,2.333 -2.693,2.333 H -3.879 C -5.675,2.333 -6.572,1.435 -6.572,0 v -7.901 c 0,-1.437 0.897,-2.334 2.693,-2.334 h 1.186 c 1.794,0 2.693,0.897 2.693,2.334 z M -3.052,-12.928 H -3.52 c -4.129,0 -6.105,1.653 -6.105,5.745 v 6.464 c 0,4.094 1.976,5.746 6.105,5.746 h 0.468 c 4.129,0 6.106,-1.652 6.106,-5.746 v -6.464 c 0,-4.092 -1.977,-5.745 -6.106,-5.745"
             style="fill:#011a30;fill-opacity:1;fill-rule:nonzero;stroke:none"
             id="path110"
             inkscape:connector-curvature="0" /></g><g
           id="g112"
           transform="translate(426.9951,269.415)"><path
             d="m 0,0 v 17.955 h 2.874 v -0.863 c 0.79,0.611 1.794,0.863 2.872,0.863 h 0.935 c 3.768,0 5.745,-1.617 5.745,-5.746 V 0 H 9.374 v 12.928 c 0,1.434 -0.897,2.333 -2.334,2.333 H 5.388 c -1.795,0 -2.334,-1.257 -2.334,-1.976 V 0 Z"
             style="fill:#011a30;fill-opacity:1;fill-rule:nonzero;stroke:none"
             id="path114"
             inkscape:connector-curvature="0" /></g><g
           id="g116"
           transform="translate(454.249,282.3428)"><path
             d="M 0,0 C 0,1.435 -0.899,2.333 -2.692,2.333 H -3.877 C -5.675,2.333 -6.571,1.435 -6.571,0 v -7.901 c 0,-1.437 0.896,-2.334 2.694,-2.334 h 1.185 c 1.793,0 2.692,0.897 2.692,2.334 z m -3.053,-12.928 h -0.466 c -4.13,0 -6.105,1.653 -6.105,5.745 v 6.464 c 0,4.094 1.975,5.746 6.105,5.746 h 0.466 c 4.131,0 6.106,-1.652 6.106,-5.746 v -6.464 c 0,-4.092 -1.975,-5.745 -6.106,-5.745"
             style="fill:#011a30;fill-opacity:1;fill-rule:nonzero;stroke:none"
             id="path118"
             inkscape:connector-curvature="0" /></g><g
           id="g120"
           transform="translate(462.6846,269.415)"><path
             d="m 0,0 v 17.955 h 2.872 v -0.863 c 0.792,0.611 1.795,0.863 2.874,0.863 H 5.96 c 2.155,0 3.737,-0.54 4.668,-1.652 0.934,1.148 2.228,1.652 3.701,1.652 h 0.215 c 3.769,0 5.746,-1.617 5.746,-5.746 V 0 h -3.052 v 12.928 c 0,1.434 -0.9,2.333 -2.336,2.333 h -0.933 c -1.651,0 -2.227,-1.329 -2.298,-2.082 V 0 H 8.619 v 12.928 c 0,1.434 -0.862,2.333 -2.299,2.333 H 5.386 c -1.722,0 -2.333,-1.15 -2.333,-1.867 V 0 Z"
             style="fill:#011a30;fill-opacity:1;fill-rule:nonzero;stroke:none"
             id="path122"
             inkscape:connector-curvature="0" /></g><path
           d="m 488.534,287.37 h 3.053 v -17.955 h -3.053 z m -0.18,7.18 h 3.411 v -3.231 h -3.411 z"
           style="fill:#011a30;fill-opacity:1;fill-rule:nonzero;stroke:none"
           id="path124"
           inkscape:connector-curvature="0" /><g
           id="g126"
           transform="translate(501.4258,269.415)"><path
             d="m 0,0 h -4.633 v 2.692 h 4.991 c 1.256,0 1.975,0.538 1.975,1.617 V 6.212 C 2.333,7.29 1.794,7.827 0.79,7.827 H 0.179 c -3.303,0 -4.991,1.328 -4.991,4.561 v 1.041 c 0,3.34 1.972,4.526 5.385,4.526 H 4.666 V 15.261 H 0.215 c -1.15,0 -1.976,-0.539 -1.976,-1.617 v -1.291 c 0,-1.149 0.826,-1.616 1.725,-1.616 h 0.502 c 3.196,0 4.92,-1.582 4.92,-4.633 V 4.488 C 5.386,1.399 3.41,0 0,0"
             style="fill:#011a30;fill-opacity:1;fill-rule:nonzero;stroke:none"
             id="path128"
             inkscape:connector-curvature="0" /></g><g
           id="g130"
           transform="translate(517.4023,269.415)"><path
             d="m 0,0 c -4.129,0 -6.104,1.617 -6.104,5.745 v 6.464 c 0,4.094 1.975,5.746 6.104,5.746 h 3.915 v -2.694 h -4.273 c -1.795,0 -2.693,-0.899 -2.693,-2.333 V 5.026 c 0,-1.436 0.898,-2.334 2.693,-2.334 H 3.915 V 0 Z"
             style="fill:#011a30;fill-opacity:1;fill-rule:nonzero;stroke:none"
             id="path132"
             inkscape:connector-curvature="0" /></g><g
           id="g134"
           transform="translate(525.9834,269.415)"><path
             d="m 0,0 v 25.135 h 3.052 v -7.899 c 0.754,0.502 1.688,0.719 2.694,0.719 H 6.68 c 3.769,0 5.745,-1.617 5.745,-5.746 V 0 H 9.371 v 12.928 c 0,1.434 -0.896,2.333 -2.332,2.333 H 5.386 c -1.724,0 -2.334,-1.15 -2.334,-1.867 V 0 Z"
             style="fill:#011a30;fill-opacity:1;fill-rule:nonzero;stroke:none"
             id="path136"
             inkscape:connector-curvature="0" /></g><g
           id="g138"
           transform="translate(546.665,279.8271)"><path
             d="m 0,0 h 5.853 v 2.693 c 0,1.257 -0.9,2.156 -2.156,2.156 H 2.332 C 0.537,4.849 0,3.95 0,2.516 Z m 3.053,-10.412 c -4.131,0 -6.108,1.617 -6.108,5.745 v 6.464 c 0,4.094 1.617,5.746 5.747,5.746 h 0.97 c 3.445,0 5.172,-1.976 5.172,-5.567 V -2.691 H 0 V -5.386 C 0,-6.822 0.897,-7.72 2.692,-7.72 h 4.992 v -2.692 z"
             style="fill:#011a30;fill-opacity:1;fill-rule:nonzero;stroke:none"
             id="path140"
             inkscape:connector-curvature="0" /></g><g
           id="g142"
           transform="translate(577.6143,269.415)"><path
             d="m 0,0 h -4.274 l -4.918,25.135 h 3.16 l 3.95,-21.976 4.27,21.976 h 3.09 z"
             style="fill:#011a30;fill-opacity:1;fill-rule:nonzero;stroke:none"
             id="path144"
             inkscape:connector-curvature="0" /></g><g
           id="g146"
           transform="translate(588.6367,279.8271)"><path
             d="m 0,0 h 5.853 v 2.693 c 0,1.257 -0.898,2.156 -2.156,2.156 H 2.332 C 0.537,4.849 0,3.95 0,2.516 Z m 3.052,-10.412 c -4.131,0 -6.106,1.617 -6.106,5.745 v 6.464 c 0,4.094 1.617,5.746 5.746,5.746 h 0.971 c 3.446,0 5.17,-1.976 5.17,-5.567 V -2.691 H 0 V -5.386 C 0,-6.822 0.896,-7.72 2.692,-7.72 h 4.991 v -2.692 z"
             style="fill:#011a30;fill-opacity:1;fill-rule:nonzero;stroke:none"
             id="path148"
             inkscape:connector-curvature="0" /></g><g
           id="g150"
           transform="translate(602.6748,269.415)"><path
             d="m 0,0 v 17.955 h 2.871 v -0.971 c 0.789,0.647 1.723,0.971 2.873,0.971 H 8.365 V 15.081 H 5.386 c -1.796,0 -2.335,-1.616 -2.335,-2.334 V 0 Z"
             style="fill:#011a30;fill-opacity:1;fill-rule:nonzero;stroke:none"
             id="path152"
             inkscape:connector-curvature="0" /></g><g
           id="g154"
           transform="translate(616.7842,279.8271)"><path
             d="M 0,0 H 5.854 V 2.693 C 5.854,3.95 4.957,4.849 3.7,4.849 H 2.336 C 0.539,4.849 0,3.95 0,2.516 Z m 3.053,-10.412 c -4.131,0 -6.106,1.617 -6.106,5.745 v 6.464 c 0,4.094 1.616,5.746 5.747,5.746 h 0.969 c 3.448,0 5.17,-1.976 5.17,-5.567 V -2.691 H 0 V -5.386 C 0,-6.822 0.898,-7.72 2.694,-7.72 h 4.99 v -2.692 z"
             style="fill:#011a30;fill-opacity:1;fill-rule:nonzero;stroke:none"
             id="path156"
             inkscape:connector-curvature="0" /></g><path
           d="m 630.822,287.37 h 3.053 v -17.955 h -3.053 z m -0.18,7.18 h 3.412 v -3.231 h -3.412 z"
           style="fill:#011a30;fill-opacity:1;fill-rule:nonzero;stroke:none"
           id="path158"
           inkscape:connector-curvature="0" /><g
           id="g160"
           transform="translate(639.6172,269.415)"><path
             d="m 0,0 v 17.955 h 2.872 v -0.863 c 0.791,0.611 1.798,0.863 2.874,0.863 H 6.68 c 3.769,0 5.745,-1.617 5.745,-5.746 V 0 H 9.372 v 12.928 c 0,1.434 -0.896,2.333 -2.333,2.333 H 5.386 c -1.794,0 -2.333,-1.257 -2.333,-1.976 V 0 Z"
             style="fill:#011a30;fill-opacity:1;fill-rule:nonzero;stroke:none"
             id="path162"
             inkscape:connector-curvature="0" /></g><path
           d="m 657.606,287.37 h 3.051 v -17.955 h -3.051 z m -0.181,7.18 h 3.41 v -3.231 h -3.41 z"
           style="fill:#011a30;fill-opacity:1;fill-rule:nonzero;stroke:none"
           id="path164"
           inkscape:connector-curvature="0" /><g
           id="g166"
           transform="translate(675.8828,279.9004)"><path
             d="m 0,0 v 4.775 h -4.633 c -1.796,0 -2.692,-0.898 -2.692,-2.333 V 0.107 c 0,-1.437 0.896,-2.335 2.692,-2.335 h 2.3 c 1.685,0 2.26,1.472 2.333,2.228 M -2.405,-16.59 H -9.66 v 2.694 h 7.614 c 1.794,0 2.586,0.826 2.586,1.795 v 1.149 c 0,1.078 -0.792,1.796 -2.586,1.796 h -5.999 v 4.954 c -1.579,0.862 -2.333,2.441 -2.333,5.027 v 0.899 c 0,4.093 1.976,5.746 6.104,5.746 H 3.054 V 0.825 c 0,-3.628 -2.157,-5.745 -5.387,-5.745 h -2.658 v -1.544 h 2.586 c 4.129,0 5.997,-1.615 5.997,-4.848 v -0.43 c 0,-3.232 -1.868,-4.848 -5.997,-4.848"
             style="fill:#011a30;fill-opacity:1;fill-rule:nonzero;stroke:none"
             id="path168"
             inkscape:connector-curvature="0" /></g><g
           id="g170"
           transform="translate(693.0801,269.415)"><path
             d="M 0,0 V 0.826 C -0.826,0.251 -1.797,0 -2.872,0 H -3.375 C -7.146,0 -9.12,1.617 -9.12,5.745 v 12.21 h 3.051 V 5.026 c 0,-1.436 0.898,-2.334 2.334,-2.334 h 1.221 c 1.688,0 2.263,1.114 2.333,1.869 V 17.955 H 2.872 V 0 Z"
             style="fill:#011a30;fill-opacity:1;fill-rule:nonzero;stroke:none"
             id="path172"
             inkscape:connector-curvature="0" /></g><g
           id="g174"
           transform="translate(701.6963,269.415)"><path
             d="m 0,0 v 17.955 h 2.873 v -0.863 c 0.789,0.611 1.795,0.863 2.873,0.863 H 6.68 c 3.769,0 5.746,-1.617 5.746,-5.746 V 0 H 9.373 v 12.928 c 0,1.434 -0.898,2.333 -2.334,2.333 H 5.388 c -1.795,0 -2.334,-1.257 -2.334,-1.976 V 0 Z"
             style="fill:#011a30;fill-opacity:1;fill-rule:nonzero;stroke:none"
             id="path176"
             inkscape:connector-curvature="0" /></g><g
           id="g178"
           transform="translate(729.165,279.9004)"><path
             d="m 0,0 v 4.775 h -4.634 c -1.796,0 -2.692,-0.898 -2.692,-2.333 V 0.107 c 0,-1.437 0.896,-2.335 2.692,-2.335 h 2.298 C -0.648,-2.228 -0.071,-0.756 0,0 M -2.406,-16.59 H -9.66 v 2.694 h 7.612 c 1.796,0 2.587,0.826 2.587,1.795 v 1.149 c 0,1.078 -0.791,1.796 -2.587,1.796 h -5.998 v 4.954 c -1.577,0.862 -2.331,2.441 -2.331,5.027 v 0.899 c 0,4.093 1.975,5.746 6.104,5.746 H 3.052 V 0.825 c 0,-3.628 -2.156,-5.745 -5.388,-5.745 h -2.656 v -1.544 h 2.586 c 4.13,0 5.997,-1.615 5.997,-4.848 v -0.43 c 0,-3.232 -1.867,-4.848 -5.997,-4.848"
             style="fill:#011a30;fill-opacity:1;fill-rule:nonzero;stroke:none"
             id="path180"
             inkscape:connector-curvature="0" /></g><g
           id="g182"
           transform="translate(362.0107,226.3301)"><path
             d="m 0,0 h -4.271 l -4.92,25.135 h 3.162 L -2.08,3.16 2.191,25.135 h 3.088 z"
             style="fill:#011a30;fill-opacity:1;fill-rule:nonzero;stroke:none"
             id="path184"
             inkscape:connector-curvature="0" /></g><g
           id="g186"
           transform="translate(379.6045,239.2549)"><path
             d="M 0,0 C 0,1.437 -0.897,2.336 -2.691,2.336 H -3.878 C -5.674,2.336 -6.569,1.437 -6.569,0 v -7.897 c 0,-1.436 0.895,-2.333 2.691,-2.333 h 1.187 c 1.794,0 2.691,0.897 2.691,2.333 z m -3.052,-12.925 h -0.466 c -4.13,0 -6.105,1.652 -6.105,5.745 v 6.462 c 0,4.093 1.975,5.745 6.105,5.745 h 0.466 c 4.13,0 6.107,-1.652 6.107,-5.745 V -7.18 c 0,-4.093 -1.977,-5.745 -6.107,-5.745"
             style="fill:#011a30;fill-opacity:1;fill-rule:nonzero;stroke:none"
             id="path188"
             inkscape:connector-curvature="0" /></g><g
           id="g190"
           transform="translate(388.042,226.3301)"><path
             d="m 0,0 v 17.952 h 2.871 v -0.969 c 0.79,0.647 1.725,0.969 2.874,0.969 H 8.367 V 15.081 H 5.386 c -1.795,0 -2.335,-1.617 -2.335,-2.336 V 0 Z"
             style="fill:#011a30;fill-opacity:1;fill-rule:nonzero;stroke:none"
             id="path192"
             inkscape:connector-curvature="0" /></g><g
           id="g194"
           transform="translate(408.6523,230.999)"><path
             d="m 0,0 v 10.592 h -3.807 c -1.795,0 -2.694,-0.899 -2.694,-2.336 V 0.358 c 0,-1.435 0.899,-2.333 2.694,-2.333 h 1.473 C -0.539,-1.975 0,-0.718 0,0 m 0.178,-4.669 v 0.826 c -0.826,-0.575 -1.794,-0.826 -2.871,-0.826 h -0.754 c -4.13,0 -6.107,1.615 -6.107,5.745 v 6.462 c 0,4.093 1.977,5.745 6.107,5.745 H 0 v 7.183 H 3.052 V -4.669 Z"
             style="fill:#011a30;fill-opacity:1;fill-rule:nonzero;stroke:none"
             id="path196"
             inkscape:connector-curvature="0" /></g><g
           id="g198"
           transform="translate(420.1406,236.7412)"><path
             d="M 0,0 H 5.853 V 2.694 C 5.853,3.951 4.954,4.85 3.696,4.85 H 2.332 C 0.538,4.85 0,3.951 0,2.514 Z m 3.051,-10.411 c -4.129,0 -6.105,1.615 -6.105,5.745 v 6.462 c 0,4.093 1.617,5.745 5.745,5.745 h 0.971 c 3.448,0 5.17,-1.976 5.17,-5.565 V -2.691 H 0 v -2.693 c 0,-1.435 0.897,-2.333 2.691,-2.333 h 4.991 v -2.694 z"
             style="fill:#011a30;fill-opacity:1;fill-rule:nonzero;stroke:none"
             id="path200"
             inkscape:connector-curvature="0" /></g><g
           id="g202"
           transform="translate(434.1768,226.3301)"><path
             d="m 0,0 v 17.952 h 2.874 v -0.969 c 0.789,0.647 1.723,0.969 2.872,0.969 H 8.369 V 15.081 H 5.387 c -1.796,0 -2.335,-1.617 -2.335,-2.336 L 3.052,0 Z"
             style="fill:#011a30;fill-opacity:1;fill-rule:nonzero;stroke:none"
             id="path204"
             inkscape:connector-curvature="0" /></g><g
           id="g206"
           transform="translate(449.1846,239.6152)"><path
             d="m 0,0 v -10.591 h 3.63 c 1.795,0 2.692,0.898 2.692,2.333 v 7.898 c 0,1.437 -0.897,2.336 -2.692,2.336 H 2.337 C 0.54,1.976 0,0.719 0,0 M -3.051,-19.389 V 4.667 h 2.874 v -0.86 c 0.788,0.61 1.794,0.86 2.872,0.86 H 3.27 c 4.128,0 6.102,-1.615 6.102,-5.745 V -7.54 c 0,-4.094 -1.974,-5.745 -6.102,-5.745 H 0 v -6.104 z"
             style="fill:#011a30;fill-opacity:1;fill-rule:nonzero;stroke:none"
             id="path208"
             inkscape:connector-curvature="0" /></g><g
           id="g210"
           transform="translate(468.7891,248.7715)"><path
             d="m 0,0 c -0.789,0 -1.258,-0.466 -1.258,-1.078 v -3.411 h 4.347 v -2.692 h -4.347 v -15.26 h -3.051 v 15.26 h -2.335 v 2.692 h 2.335 v 3.231 c 0,2.515 1.58,3.951 3.735,3.951 H 3.448 V 0 Z"
             style="fill:#011a30;fill-opacity:1;fill-rule:nonzero;stroke:none"
             id="path212"
             inkscape:connector-curvature="0" /></g><g
           id="g214"
           transform="translate(482.6504,230.8203)"><path
             d="m 0,0 v 3.949 h -3.771 c -1.256,0 -2.156,-0.898 -2.156,-2.155 V 0 c 0,-1.258 0.539,-1.796 1.795,-1.796 h 2.479 C 0,-1.796 0,-0.72 0,0 m 2.871,-4.49 c -0.647,0 -1.436,0.43 -1.975,1.078 C 0.392,-4.06 -0.36,-4.49 -1.293,-4.49 h -2.478 c -3.592,0 -5.208,1.257 -5.208,4.848 v 0.716 c 0,3.592 1.653,5.565 5.243,5.565 H 0 v 1.796 c 0,1.437 -0.899,2.336 -2.695,2.336 h -4.849 v 2.691 h 4.489 c 4.13,0 6.106,-1.652 6.106,-5.745 v -8.615 c 0,-0.719 0.466,-1.079 1.796,-1.079 V -4.49 Z"
             style="fill:#011a30;fill-opacity:1;fill-rule:nonzero;stroke:none"
             id="path216"
             inkscape:connector-curvature="0" /></g><g
           id="g218"
           transform="translate(494.6729,226.3301)"><path
             d="M 0,0 C -1.398,0 -3.05,0.862 -3.05,3.592 V 25.135 H 0 V 3.771 C 0,3.018 0.324,2.694 1.258,2.694 H 1.976 V 0 Z"
             style="fill:#011a30;fill-opacity:1;fill-rule:nonzero;stroke:none"
             id="path220"
             inkscape:connector-curvature="0" /></g><g
           id="g222"
           transform="translate(502.8242,228.9883)"><path
             d="m 0,0 h 7.396 v -2.658 h -10.7 v 2.873 l 7.791,12.424 h -7.073 v 2.655 H 7.757 V 12.1 Z"
             style="fill:#011a30;fill-opacity:1;fill-rule:nonzero;stroke:none"
             id="path224"
             inkscape:connector-curvature="0" /></g><g
           id="g226"
           transform="translate(527.2754,236.7412)"><path
             d="M 0,0 H 5.854 V 2.694 C 5.854,3.951 4.956,4.85 3.698,4.85 H 2.333 C 0.538,4.85 0,3.951 0,2.514 Z m 3.052,-10.411 c -4.13,0 -6.106,1.615 -6.106,5.745 v 6.462 c 0,4.093 1.617,5.745 5.747,5.745 h 0.969 c 3.448,0 5.171,-1.976 5.171,-5.565 V -2.691 H 0 v -2.693 c 0,-1.435 0.897,-2.333 2.693,-2.333 h 4.992 v -2.694 z"
             style="fill:#011a30;fill-opacity:1;fill-rule:nonzero;stroke:none"
             id="path228"
             inkscape:connector-curvature="0" /></g><path
           d="m 540.775,229.922 h 3.59 v -3.592 h -3.59 z"
           style="fill:#011a30;fill-opacity:1;fill-rule:nonzero;stroke:none"
           id="path230"
           inkscape:connector-curvature="0" /><g
           id="g232"
           transform="translate(555.3525,226.3301)"><path
             d="m 0,0 h -4.273 l -4.919,25.135 h 3.161 L -2.081,3.16 2.192,25.135 h 3.087 z"
             style="fill:#011a30;fill-opacity:1;fill-rule:nonzero;stroke:none"
             id="path234"
             inkscape:connector-curvature="0" /></g><path
           d="m 562.426,229.922 h 3.59 v -3.592 h -3.59 z"
           style="fill:#011a30;fill-opacity:1;fill-rule:nonzero;stroke:none"
           id="path236"
           inkscape:connector-curvature="0" /></g></g></g></svg>